<?xml version="1.0" encoding="UTF-8" standalone="no"?>
<!DOCTYPE svg PUBLIC "-//W3C//DTD SVG 1.1//EN" "http://www.w3.org/Graphics/SVG/1.1/DTD/svg11.dtd">
<!-- Created with Vectornator (http://vectornator.io/) -->
<svg height="100%" stroke-miterlimit="10" style="fill-rule:nonzero;clip-rule:evenodd;stroke-linecap:round;stroke-linejoin:round;" version="1.1" viewBox="0 0 1024 1024" width="100%" xml:space="preserve" xmlns="http://www.w3.org/2000/svg" xmlns:vectornator="http://vectornator.io" xmlns:xlink="http://www.w3.org/1999/xlink">
<defs/>
<g id="Capa-1" vectornator:layerName="Capa 1">
<path d="M251.5 89C243.833 90.3333 234.333 92.6667 223 96C211.667 99.3333 202.833 102.5 196.5 105.5C190.167 108.5 183.167 112.667 175.5 118C167.833 123.333 160.833 129 154.5 135C148.167 141 142.167 147.5 136.5 154.5C130.833 161.5 125.833 168.5 121.5 175.5C117.167 182.5 112.167 192 106.5 204C100.833 216 96.5 227 93.5 237C90.5 247 87.8333 258.833 85.5 272.5C83.1667 286.167 81.6667 301.667 81 319C80.3333 336.333 80.5 351.333 81.5 364C82.5 376.667 84.6667 390.833 88 406.5C91.3333 422.167 94.8333 435.5 98.5 446.5C102.167 457.5 106.667 468.333 112 479C117.333 489.667 124.667 502.5 134 517.5C138.667 525 143.333 532.5 148 540C145.333 541.167 142.667 542.333 140 543.5C134.667 545.833 127.667 550.167 119 556.5C110.333 562.833 101 571 91 581C81 591 73.5 599.333 68.5 606C63.5 612.667 57.5 623.333 50.5 638C43.5 652.667 37 671.833 31 695.5C28 707.333 25 719.167 22 731C28.3333 729.5 34.6667 728 41 726.5C53.6667 723.5 64 721.5 72 720.5C80 719.5 127.5 717.667 214.5 715C301.5 712.333 439.667 710.333 629 709C818.333 707.667 922.167 707.333 940.5 708C958.833 708.667 971.667 709.667 979 711C982.667 711.667 986.333 712.333 990 713C988.333 706.5 986.667 700 985 693.5C981.667 680.5 978.333 669.5 975 660.5C971.667 651.5 967.5 642.167 962.5 632.5C957.5 622.833 952.167 613.833 946.5 605.5C940.833 597.167 931.167 586.167 917.5 572.5C903.833 558.833 892.667 549 884 543C875.333 537 866.5 531.833 857.5 527.5C848.5 523.167 833.167 520 811.5 518C789.833 516 764.5 514.667 735.5 514C706.5 513.333 658.833 513 592.5 513C526.167 513 464.667 513.833 408 515.5C351.333 517.167 310.333 518 285 518C259.667 518 242.333 517.333 233 516C223.667 514.667 215.333 511.5 208 506.5C200.667 501.5 193.833 495.833 187.5 489.5C181.167 483.167 175.667 476.833 171 470.5C166.333 464.167 160.167 453.333 152.5 438C144.833 422.667 139 409.5 135 398.5C131 387.5 127.833 377 125.5 367C123.167 357 121.333 346.5 120 335.5C118.667 324.5 118 312 118 298C118 284 118.5 272.333 119.5 263C120.5 253.667 122.833 242 126.5 228C130.167 214 134.167 202.333 138.5 193C142.833 183.667 148.5 174 155.5 164C162.5 154 170.833 144.667 180.5 136C190.167 127.333 200.333 120 211 114C221.667 108 231.333 103.667 240 101C248.667 98.3333 257.5 96.3333 266.5 95C275.5 93.6667 288.167 93.1667 304.5 93.5C312.667 93.6667 320.833 93.8333 329 94C324 92.8333 319 91.6667 314 90.5C304 88.1667 293 87 281 87C269 87 259.167 87.6667 251.5 89ZM672 171C663.333 173 653.667 177.167 643 183.5C632.333 189.833 624.833 195.167 620.5 199.5C616.167 203.833 611.833 209.167 607.5 215.5C603.167 221.833 598.5 231.333 593.5 244C588.5 256.667 585.5 268.833 584.5 280.5C583.5 292.167 583.833 303.833 585.5 315.5C587.167 327.167 590.833 339.5 596.5 352.5C602.167 365.5 609 376.5 617 385.5C625 394.5 633.667 401.833 643 407.5C652.333 413.167 661.5 417.167 670.5 419.5C679.5 421.833 687.667 423 695 423C702.333 423 710.333 421.833 719 419.5C727.667 417.167 737.5 413.167 748.5 407.5C759.5 401.833 768.833 395.667 776.5 389C784.167 382.333 789.333 376.5 792 371.5C794.667 366.5 797.667 359.333 801 350C804.333 340.667 807.333 334.5 810 331.5C812.667 328.5 814.833 326.667 816.5 326C818.167 325.333 820.833 325 824.5 325C828.167 325 832.667 326 838 328C843.333 330 850.167 333.333 858.5 338C866.833 342.667 874.667 348 882 354C889.333 360 893.5 362.667 894.5 362C895.5 361.333 901.167 352.333 911.5 335C921.833 317.667 929 304.667 933 296C937 287.333 939 281.667 939 279C939 276.333 938 273.333 936 270C934 266.667 929.333 261.167 922 253.5C914.667 245.833 907.833 239.5 901.5 234.5C895.167 229.5 886.167 223.333 874.5 216C862.833 208.667 853.667 203.333 847 200C840.333 196.667 831.833 193.167 821.5 189.5C811.167 185.833 795.667 181.667 775 177C754.333 172.333 734.167 169.667 714.5 169C694.833 168.333 680.667 169 672 171ZM282 177C274 179 267.167 181.333 261.5 184C255.833 186.667 247.5 193.5 236.5 204.5C225.5 215.5 217.833 224.667 213.5 232C209.167 239.333 205.333 247.5 202 256.5C198.667 265.5 196.333 273.167 195 279.5C193.667 285.833 193.167 293 193.5 301C193.833 309 195.667 319 199 331C202.333 343 205.833 353.333 209.5 362C213.167 370.667 217.333 378 222 384C226.667 390 232.333 396.167 239 402.5C245.667 408.833 251.667 413.5 257 416.5C262.333 419.5 267.167 421.667 271.5 423C275.833 424.333 281.667 425.333 289 426C296.333 426.667 306.667 426.667 320 426C333.333 425.333 343.833 423.333 351.5 420C359.167 416.667 366.333 412.667 373 408C379.667 403.333 386 397.5 392 390.5C398 383.5 403.167 375.5 407.5 366.5C409.667 362 411.833 357.5 414 353C410.167 356.833 406.333 360.667 402.5 364.5C394.833 372.167 388.333 377.5 383 380.5C377.667 383.5 372.833 385.667 368.5 387C364.167 388.333 357.833 389.167 349.5 389.5C341.167 389.833 334.333 389.333 329 388C323.667 386.667 318.167 384.667 312.5 382C306.833 379.333 300.5 374.833 293.5 368.5C286.5 362.167 280.667 354.5 276 345.5C271.333 336.5 268.167 326.167 266.5 314.5C264.833 302.833 264.167 292.833 264.5 284.5C264.833 276.167 265.667 270 267 266C268.333 262 271 256.333 275 249C279 241.667 284 234.833 290 228.5C296 222.167 301.167 217.667 305.5 215C309.833 212.333 314.333 210.167 319 208.5C323.667 206.833 328.167 205.667 332.5 205C336.833 204.333 343.667 204.333 353 205C362.333 205.667 370.833 208.167 378.5 212.5C386.167 216.833 393 221.5 399 226.5C402 229 405 231.5 408 234C408.167 233.667 408.333 233.333 408.5 233C408.833 232.333 404.5 226.667 395.5 216C386.5 205.333 378.5 197.5 371.5 192.5C364.5 187.5 357.833 183.667 351.5 181C345.167 178.333 339.5 176.5 334.5 175.5C329.5 174.5 321.5 174 310.5 174C299.5 174 290 175 282 177Z" fill="#ffffff" fill-rule="nonzero" opacity="1" stroke="none" vectornator:layerName="Curva 1"/>
</g>
</svg>
