<?xml version="1.0" encoding="UTF-8" standalone="no"?>
<!DOCTYPE svg PUBLIC "-//W3C//DTD SVG 1.1//EN" "http://www.w3.org/Graphics/SVG/1.1/DTD/svg11.dtd">
<!-- Created with Vectornator (http://vectornator.io/) -->
<svg height="100%" stroke-miterlimit="10" style="fill-rule:nonzero;clip-rule:evenodd;stroke-linecap:round;stroke-linejoin:round;" version="1.1" viewBox="0 0 1024 1024" width="100%" xml:space="preserve" xmlns="http://www.w3.org/2000/svg" xmlns:vectornator="http://vectornator.io" xmlns:xlink="http://www.w3.org/1999/xlink">
<defs/>
<g id="Capa-1" vectornator:layerName="Capa 1">
<path d="M342.5 88.5C330.833 91.5 320.333 95.8333 311 101.5C301.667 107.167 293.167 114.167 285.5 122.5C277.833 130.833 271.333 140 266 150C260.667 160 256.833 168.833 254.5 176.5C252.167 184.167 250.333 192.167 249 200.5C247.667 208.833 247.333 221.5 248 238.5C248.667 255.5 250.167 268.833 252.5 278.5C254.833 288.167 257.667 297.167 261 305.5C264.333 313.833 270.167 324 278.5 336C282.667 342 286.833 348 291 354C285.833 357.167 280.667 360.333 275.5 363.5C265.167 369.833 255.5 377.833 246.5 387.5C237.5 397.167 230.5 406.833 225.5 416.5C220.5 426.167 216.5 437.333 213.5 450C212 456.333 210.5 462.667 209 469C214.333 468 219.667 467 225 466C235.667 464 246.833 462.667 258.5 462C270.167 461.333 312.5 460.167 385.5 458.5C458.5 456.833 545.5 455.667 646.5 455C747.5 454.333 805.667 454.833 821 456.5C828.667 457.333 836.333 458.167 844 459C842.667 453.833 841.333 448.667 840 443.5C837.333 433.167 832.833 422.333 826.5 411C820.167 399.667 813.833 390.667 807.5 384C801.167 377.333 795.333 371.833 790 367.5C784.667 363.167 779.667 359.5 775 356.5C770.333 353.5 764.5 350.5 757.5 347.5C750.5 344.5 733 342.167 705 340.5C677 338.833 638.5 338 589.5 338C540.5 338 498.833 338.333 464.5 339C430.167 339.667 401.5 340.667 378.5 342C355.5 343.333 341 342 335 338C329 334 322.333 328.333 315 321C307.667 313.667 300.333 303.5 293 290.5C285.667 277.5 280.333 264.333 277 251C273.667 237.667 272 224.333 272 211C272 197.667 272.667 187.667 274 181C275.333 174.333 278 166.167 282 156.5C286 146.833 289.833 139.333 293.5 134C297.167 128.667 301.833 123.333 307.5 118C313.167 112.667 319.833 107.833 327.5 103.5C335.167 99.1667 342 96 348 94C354 92 360 90.5 366 89.5C372 88.5 382.167 88.1667 396.5 88.5C403.667 88.6667 410.833 88.8333 418 89C414.167 88.1667 410.333 87.3333 406.5 86.5C398.833 84.8333 389.167 84 377.5 84C365.833 84 354.167 85.5 342.5 88.5Z" fill="#fccc8e" fill-rule="nonzero" opacity="1" stroke="none" vectornator:layerName="Curva 1"/>
<path d="M643.5 132.5C635.167 133.5 627.333 135.667 620 139C612.667 142.333 606.333 146.5 601 151.5C595.667 156.5 591.333 162 588 168C584.667 174 581.833 181.333 579.5 190C577.167 198.667 576.167 206.167 576.5 212.5C576.833 218.833 577.667 224.5 579 229.5C580.333 234.5 582.167 239.333 584.5 244C586.833 248.667 589.833 253.333 593.5 258C597.167 262.667 601.167 266.667 605.5 270C609.833 273.333 615 276.333 621 279C627 281.667 631.667 283.333 635 284C638.333 284.667 645 284.667 655 284C665 283.333 674.333 281 683 277C691.667 273 698.833 268.833 704.5 264.5C710.167 260.167 714.167 255.833 716.5 251.5C718.833 247.167 721.167 241.333 723.5 234C724.667 230.333 725.833 226.667 727 223C732 224.667 737 226.333 742 228C752 231.333 758.833 234 762.5 236C766.167 238 769.833 240.667 773.5 244C777.167 247.333 779.667 248.667 781 248C782.333 247.333 788 239.333 798 224C808 208.667 812.667 200 812 198C811.333 196 808.333 192.167 803 186.5C797.667 180.833 789.5 174.5 778.5 167.5C767.5 160.5 756.667 154.667 746 150C735.333 145.333 722.833 141.333 708.5 138C694.167 134.667 681.833 132.667 671.5 132C661.167 131.333 651.833 131.5 643.5 132.5Z" fill="#ffffff" fill-rule="nonzero" opacity="1" stroke="none" vectornator:layerName="Curva 2"/>
<path d="M382 136.5C377.333 137.5 372.333 139.167 367 141.5C361.667 143.833 355.5 148 348.5 154C341.5 160 336.667 165 334 169C331.333 173 328.833 177.833 326.5 183.5C324.167 189.167 322.667 196 322 204C321.333 212 321.5 218.5 322.5 223.5C323.5 228.5 325.5 234.667 328.5 242C331.5 249.333 335.833 256.333 341.5 263C347.167 269.667 351.833 274.333 355.5 277C359.167 279.667 363.333 281.833 368 283.5C372.667 285.167 381 286.333 393 287C405 287.667 413.5 287.333 418.5 286C423.5 284.667 430 281.5 438 276.5C446 271.5 451.833 266.667 455.5 262C459.167 257.333 462.167 252.5 464.5 247.5C465.667 245 466.833 242.5 468 240C465.333 242.667 462.667 245.333 460 248C454.667 253.333 448.5 257.5 441.5 260.5C434.5 263.5 427.833 265 421.5 265C415.167 265 408.833 263.833 402.5 261.5C396.167 259.167 390.5 255.667 385.5 251C380.5 246.333 376.5 241 373.5 235C370.5 229 368.667 222.5 368 215.5C367.333 208.5 367.667 202.167 369 196.5C370.333 190.833 372 186.167 374 182.5C376 178.833 379.167 174.833 383.5 170.5C387.833 166.167 392.167 162.833 396.5 160.5C400.833 158.167 405.5 156.5 410.5 155.5C415.5 154.5 422 154.667 430 156C438 157.333 444 159.167 448 161.5C452 163.833 455.833 167.167 459.5 171.5C461.333 173.667 463.167 175.833 465 178C465.167 177.667 465.333 177.333 465.5 177C465.833 176.333 463.833 173 459.5 167C455.167 161 450 155.667 444 151C438 146.333 431.333 142.667 424 140C416.667 137.333 409 135.833 401 135.5C393 135.167 386.667 135.5 382 136.5Z" fill="#ffffff" fill-rule="nonzero" opacity="1" stroke="none" vectornator:layerName="Curva 3"/>
<path d="M389.5 483.5C291.833 485.167 239.667 486.5 233 487.5C226.333 488.5 218.333 491 209 495C199.667 499 190.5 504.5 181.5 511.5C172.5 518.5 164.667 525.667 158 533C151.333 540.333 145 549.333 139 560C133 570.667 128.833 579.167 126.5 585.5C124.167 591.833 122.5 597.667 121.5 603C120.5 608.333 120.167 618.333 120.5 633C120.833 647.667 122.667 661.167 126 673.5C129.333 685.833 132.667 695.333 136 702C139.333 708.667 145.667 717.167 155 727.5C164.333 737.833 172 745.333 178 750C184 754.667 191.167 759.167 199.5 763.5C207.833 767.833 216.333 770.667 225 772C233.667 773.333 247.333 774.333 266 775C284.667 775.667 330.333 776 403 776C475.667 776 556.5 775.333 645.5 774C734.5 772.667 786.167 771.667 800.5 771C814.833 770.333 827.5 768 838.5 764C849.5 760 859.333 754.833 868 748.5C876.667 742.167 885.333 734.333 894 725C902.667 715.667 909.833 705.833 915.5 695.5C921.167 685.167 925.5 675.167 928.5 665.5C931.5 655.833 933.167 644.667 933.5 632C933.833 619.333 932.667 606.5 930 593.5C927.333 580.5 923.333 568.5 918 557.5C912.667 546.5 906.167 536.833 898.5 528.5C890.833 520.167 882 512.333 872 505C862 497.667 854.5 492.833 849.5 490.5C844.5 488.167 839.667 486.5 835 485.5C830.333 484.5 817.333 483.5 796 482.5C774.667 481.5 726 481 650 481C574 481 487.167 481.833 389.5 483.5Z" fill="#cc4029" fill-rule="nonzero" opacity="1" stroke="none" vectornator:layerName="Curva 4"/>
<path d="M216 592C316.667 592.333 417.333 592.667 518 593C719.333 593.667 823.833 594.333 831.5 595C835.333 595.333 839.167 595.667 843 596C838.833 599.167 834.667 602.333 830.5 605.5C822.167 611.833 813.5 617.333 804.5 622C795.5 626.667 785 631.167 773 635.5C761 639.833 749.833 643.333 739.5 646C729.167 648.667 710 652 682 656C654 660 622.167 662.333 586.5 663C550.833 663.667 517.167 662.667 485.5 660C453.833 657.333 423 653.333 393 648C363 642.667 335.333 636.333 310 629C284.667 621.667 264.833 615 250.5 609C236.167 603 226.833 598.667 222.5 596C220.333 594.667 218.167 593.333 216 592Z" fill="#ffffff" fill-rule="nonzero" opacity="1" stroke="none" vectornator:layerName="Curva 5"/>
<path d="M831.5 795.5C821.167 797.833 791.667 799.833 743 801.5C694.333 803.167 602.333 804.667 467 806C331.667 807.333 259.5 807.833 250.5 807.5C241.5 807.167 233 806.333 225 805C221 804.333 217 803.667 213 803C213 803.5 213 804 213 804.5C213 805.5 215 812.167 219 824.5C223 836.833 228.333 848.333 235 859C241.667 869.667 250.167 879.667 260.5 889C270.833 898.333 280.833 905.5 290.5 910.5C300.167 915.5 310.333 918.667 321 920C331.667 921.333 347.333 922.333 368 923C388.667 923.667 432.5 923.833 499.5 923.5C566.5 923.167 622 922 666 920C710 918 735 916.5 741 915.5C747 914.5 754.167 912.167 762.5 908.5C770.833 904.833 778.333 900.667 785 896C791.667 891.333 798.167 885.833 804.5 879.5C810.833 873.167 815.833 867.5 819.5 862.5C823.167 857.5 827.833 849.167 833.5 837.5C839.167 825.833 843.167 815.667 845.5 807C847.833 798.333 848.667 793.667 848 793C847.333 792.333 841.833 793.167 831.5 795.5Z" fill="#fccc8e" fill-rule="nonzero" opacity="1" stroke="none" vectornator:layerName="Curva 6"/>
</g>
</svg>
